<mxfile host="app.diagrams.net" modified="2023-06-21T14:08:09.745Z" agent="Mozilla/5.0 (Windows NT 10.0; Win64; x64) AppleWebKit/537.36 (KHTML, like Gecko) Chrome/109.0.0.0 Safari/537.36" etag="cMeijI8jSKjIZwn_0-XO" version="21.3.8" type="device">
  <diagram id="zFXCO6tVe_BXruqs3yqt" name="Page-1">
    <mxGraphModel dx="1931" dy="458" grid="1" gridSize="10" guides="1" tooltips="1" connect="1" arrows="1" fold="1" page="1" pageScale="1" pageWidth="850" pageHeight="1100" background="#ffffff" math="0" shadow="0">
      <root>
        <mxCell id="0" />
        <mxCell id="1" parent="0" />
        <mxCell id="2" value="BaseMediator" style="swimlane;fontStyle=3;align=center;verticalAlign=top;childLayout=stackLayout;horizontal=1;startSize=26;horizontalStack=0;resizeParent=1;resizeParentMax=0;resizeLast=0;collapsible=1;marginBottom=0;fontColor=#000000;strokeColor=#0000CC;strokeWidth=2;fillColor=#FFFFFF;" parent="1" vertex="1">
          <mxGeometry x="310" y="90" width="190" height="60" as="geometry" />
        </mxCell>
        <mxCell id="4" value="" style="line;strokeWidth=2;align=left;verticalAlign=middle;spacingTop=-1;spacingLeft=3;spacingRight=3;rotatable=0;labelPosition=right;points=[];portConstraint=eastwest;fontColor=#000000;strokeColor=#0000CC;fillColor=#FFFFFF;" parent="2" vertex="1">
          <mxGeometry y="26" width="190" height="8" as="geometry" />
        </mxCell>
        <mxCell id="5" value="+ notify(sender: object, event: str)" style="text;align=left;verticalAlign=top;spacingLeft=4;spacingRight=4;overflow=hidden;rotatable=0;points=[[0,0.5],[1,0.5]];portConstraint=eastwest;fontColor=#000000;strokeColor=#0000CC;strokeWidth=2;fillColor=#FFFFFF;" parent="2" vertex="1">
          <mxGeometry y="34" width="190" height="26" as="geometry" />
        </mxCell>
        <mxCell id="7" value="Employee" style="swimlane;fontStyle=1;align=center;verticalAlign=top;childLayout=stackLayout;horizontal=1;startSize=26;horizontalStack=0;resizeParent=1;resizeParentMax=0;resizeLast=0;collapsible=1;marginBottom=0;fontColor=#000000;strokeColor=#0000CC;strokeWidth=2;fillColor=#FFFFFF;" parent="1" vertex="1">
          <mxGeometry x="310" y="210" width="190" height="112" as="geometry" />
        </mxCell>
        <mxCell id="10" value="# _component1: Component1" style="text;align=left;verticalAlign=top;spacingLeft=4;spacingRight=4;overflow=hidden;rotatable=0;points=[[0,0.5],[1,0.5]];portConstraint=eastwest;fontColor=#000000;strokeColor=#0000CC;strokeWidth=2;fillColor=#FFFFFF;" parent="7" vertex="1">
          <mxGeometry y="26" width="190" height="26" as="geometry" />
        </mxCell>
        <mxCell id="11" value="# _component2: Component2" style="text;align=left;verticalAlign=top;spacingLeft=4;spacingRight=4;overflow=hidden;rotatable=0;points=[[0,0.5],[1,0.5]];portConstraint=eastwest;fontColor=#000000;strokeColor=#0000CC;strokeWidth=2;fillColor=#FFFFFF;" parent="7" vertex="1">
          <mxGeometry y="52" width="190" height="26" as="geometry" />
        </mxCell>
        <mxCell id="8" value="" style="line;strokeWidth=2;align=left;verticalAlign=middle;spacingTop=-1;spacingLeft=3;spacingRight=3;rotatable=0;labelPosition=right;points=[];portConstraint=eastwest;fontColor=#000000;strokeColor=#0000CC;fillColor=#FFFFFF;" parent="7" vertex="1">
          <mxGeometry y="78" width="190" height="8" as="geometry" />
        </mxCell>
        <mxCell id="9" value="+ notify(sender: object, event: str)" style="text;align=left;verticalAlign=top;spacingLeft=4;spacingRight=4;overflow=hidden;rotatable=0;points=[[0,0.5],[1,0.5]];portConstraint=eastwest;fontColor=#000000;strokeColor=#0000CC;strokeWidth=2;fillColor=#FFFFFF;" parent="7" vertex="1">
          <mxGeometry y="86" width="190" height="26" as="geometry" />
        </mxCell>
        <mxCell id="21" value="Director" style="swimlane;fontStyle=1;align=center;verticalAlign=top;childLayout=stackLayout;horizontal=1;startSize=26;horizontalStack=0;resizeParent=1;resizeParentMax=0;resizeLast=0;collapsible=1;marginBottom=0;fontColor=#000000;strokeColor=#0000CC;strokeWidth=2;fillColor=#FFFFFF;" parent="1" vertex="1">
          <mxGeometry x="600" y="210" width="190" height="86" as="geometry" />
        </mxCell>
        <mxCell id="22" value="" style="line;strokeWidth=2;align=left;verticalAlign=middle;spacingTop=-1;spacingLeft=3;spacingRight=3;rotatable=0;labelPosition=right;points=[];portConstraint=eastwest;fontColor=#000000;strokeColor=#0000CC;fillColor=#FFFFFF;" parent="21" vertex="1">
          <mxGeometry y="26" width="190" height="8" as="geometry" />
        </mxCell>
        <mxCell id="26" value="# __text: str" style="text;align=left;verticalAlign=top;spacingLeft=4;spacingRight=4;overflow=hidden;rotatable=0;points=[[0,0.5],[1,0.5]];portConstraint=eastwest;fontColor=#000000;strokeColor=#0000CC;strokeWidth=2;fillColor=#FFFFFF;" parent="21" vertex="1">
          <mxGeometry y="34" width="190" height="26" as="geometry" />
        </mxCell>
        <mxCell id="27" value="+ give_command(txt: str)" style="text;align=left;verticalAlign=top;spacingLeft=4;spacingRight=4;overflow=hidden;rotatable=0;points=[[0,0.5],[1,0.5]];portConstraint=eastwest;fontColor=#000000;strokeColor=#0000CC;strokeWidth=2;fillColor=#FFFFFF;" parent="21" vertex="1">
          <mxGeometry y="60" width="190" height="26" as="geometry" />
        </mxCell>
        <mxCell id="12" value="BaseController" style="swimlane;fontStyle=3;align=center;verticalAlign=top;childLayout=stackLayout;horizontal=1;startSize=26;horizontalStack=0;resizeParent=1;resizeParentMax=0;resizeLast=0;collapsible=1;marginBottom=0;fontColor=#000000;strokeColor=#0000CC;strokeWidth=2;fillColor=#FFFFFF;" parent="1" vertex="1">
          <mxGeometry x="310" y="400" width="200" height="112" as="geometry" />
        </mxCell>
        <mxCell id="15" value="# _mediator: Mediator" style="text;align=left;verticalAlign=top;spacingLeft=4;spacingRight=4;overflow=hidden;rotatable=0;points=[[0,0.5],[1,0.5]];portConstraint=eastwest;fontColor=#000000;strokeColor=#0000CC;strokeWidth=2;fillColor=#FFFFFF;" parent="12" vertex="1">
          <mxGeometry y="26" width="200" height="26" as="geometry" />
        </mxCell>
        <mxCell id="13" value="" style="line;strokeWidth=2;align=left;verticalAlign=middle;spacingTop=-1;spacingLeft=3;spacingRight=3;rotatable=0;labelPosition=right;points=[];portConstraint=eastwest;fontColor=#000000;strokeColor=#0000CC;fillColor=#FFFFFF;" parent="12" vertex="1">
          <mxGeometry y="52" width="200" height="8" as="geometry" />
        </mxCell>
        <mxCell id="16" value="+ get_mediator(): Mediator" style="text;align=left;verticalAlign=top;spacingLeft=4;spacingRight=4;overflow=hidden;rotatable=0;points=[[0,0.5],[1,0.5]];portConstraint=eastwest;fontColor=#000000;strokeColor=#0000CC;strokeWidth=2;fillColor=#FFFFFF;" parent="12" vertex="1">
          <mxGeometry y="60" width="200" height="26" as="geometry" />
        </mxCell>
        <mxCell id="17" value="+ set_mediator(mediator: Mediator)" style="text;align=left;verticalAlign=top;spacingLeft=4;spacingRight=4;overflow=hidden;rotatable=0;points=[[0,0.5],[1,0.5]];portConstraint=eastwest;fontColor=#000000;strokeColor=#0000CC;strokeWidth=2;fillColor=#FFFFFF;" parent="12" vertex="1">
          <mxGeometry y="86" width="200" height="26" as="geometry" />
        </mxCell>
        <mxCell id="28" value="1" style="endArrow=open;html=1;endSize=12;startArrow=diamondThin;startSize=14;startFill=1;edgeStyle=orthogonalEdgeStyle;align=left;verticalAlign=bottom;exitX=0;exitY=0.5;exitDx=0;exitDy=0;strokeWidth=2;strokeColor=#0000CC;entryX=0.991;entryY=0.09;entryDx=0;entryDy=0;entryPerimeter=0;fontSize=17;fontColor=#000000;labelBackgroundColor=none;" parent="1" source="10" target="18" edge="1">
          <mxGeometry x="0.2361" y="-60" relative="1" as="geometry">
            <mxPoint x="340" y="310" as="sourcePoint" />
            <mxPoint x="500" y="310" as="targetPoint" />
            <Array as="points">
              <mxPoint x="230" y="249" />
              <mxPoint x="230" y="220" />
            </Array>
            <mxPoint as="offset" />
          </mxGeometry>
        </mxCell>
        <mxCell id="18" value="Designer" style="swimlane;fontStyle=1;align=center;verticalAlign=top;childLayout=stackLayout;horizontal=1;startSize=26;horizontalStack=0;resizeParent=1;resizeParentMax=0;resizeLast=0;collapsible=1;marginBottom=0;fontColor=#000000;strokeColor=#0000CC;strokeWidth=2;fillColor=#FFFFFF;" parent="1" vertex="1">
          <mxGeometry y="210" width="190" height="112" as="geometry" />
        </mxCell>
        <mxCell id="19" value="" style="line;strokeWidth=2;align=left;verticalAlign=middle;spacingTop=-1;spacingLeft=3;spacingRight=3;rotatable=0;labelPosition=right;points=[];portConstraint=eastwest;fontColor=#000000;strokeColor=#0000CC;fillColor=#FFFFFF;" parent="18" vertex="1">
          <mxGeometry y="26" width="190" height="8" as="geometry" />
        </mxCell>
        <mxCell id="20" value="# __is_working: bool" style="text;align=left;verticalAlign=top;spacingLeft=4;spacingRight=4;overflow=hidden;rotatable=0;points=[[0,0.5],[1,0.5]];portConstraint=eastwest;fontColor=#000000;strokeColor=#0000CC;strokeWidth=2;fillColor=#FFFFFF;" parent="18" vertex="1">
          <mxGeometry y="34" width="190" height="26" as="geometry" />
        </mxCell>
        <mxCell id="25" value="+ execute_work()" style="text;align=left;verticalAlign=top;spacingLeft=4;spacingRight=4;overflow=hidden;rotatable=0;points=[[0,0.5],[1,0.5]];portConstraint=eastwest;fontColor=#000000;strokeColor=#0000CC;strokeWidth=2;fillColor=#FFFFFF;" parent="18" vertex="1">
          <mxGeometry y="60" width="190" height="26" as="geometry" />
        </mxCell>
        <mxCell id="UX9mjBpF86w4FMLGxx9i-35" value="+ set_work()" style="text;align=left;verticalAlign=top;spacingLeft=4;spacingRight=4;overflow=hidden;rotatable=0;points=[[0,0.5],[1,0.5]];portConstraint=eastwest;fontColor=#000000;strokeColor=#0000CC;strokeWidth=2;fillColor=#FFFFFF;" vertex="1" parent="18">
          <mxGeometry y="86" width="190" height="26" as="geometry" />
        </mxCell>
        <mxCell id="29" value="1" style="text;html=1;align=center;verticalAlign=middle;resizable=0;points=[];autosize=1;fontSize=17;fontColor=#000000;" parent="1" vertex="1">
          <mxGeometry x="200" y="190" width="20" height="30" as="geometry" />
        </mxCell>
        <mxCell id="30" value="1" style="endArrow=open;html=1;endSize=12;startArrow=diamondThin;startSize=14;startFill=1;edgeStyle=orthogonalEdgeStyle;align=left;verticalAlign=bottom;labelBackgroundColor=none;strokeColor=#0000CC;strokeWidth=2;fontSize=17;fontColor=#000000;exitX=1;exitY=0.5;exitDx=0;exitDy=0;entryX=0;entryY=0.25;entryDx=0;entryDy=0;" parent="1" source="11" target="21" edge="1">
          <mxGeometry x="-1" y="3" relative="1" as="geometry">
            <mxPoint x="340" y="310" as="sourcePoint" />
            <mxPoint x="500" y="310" as="targetPoint" />
            <Array as="points">
              <mxPoint x="550" y="275" />
              <mxPoint x="550" y="232" />
            </Array>
          </mxGeometry>
        </mxCell>
        <mxCell id="31" value="1" style="text;html=1;align=center;verticalAlign=middle;resizable=0;points=[];autosize=1;fontSize=17;fontColor=#000000;" parent="1" vertex="1">
          <mxGeometry x="580" y="200" width="20" height="30" as="geometry" />
        </mxCell>
        <mxCell id="32" value="Extends" style="endArrow=block;endSize=16;endFill=0;html=1;labelBackgroundColor=none;strokeColor=#0000CC;strokeWidth=2;fontSize=17;fontColor=#000000;exitX=0.5;exitY=0;exitDx=0;exitDy=0;entryX=0.5;entryY=0;entryDx=0;entryDy=0;" parent="1" source="18" target="12" edge="1">
          <mxGeometry x="0.5349" y="10" width="160" relative="1" as="geometry">
            <mxPoint x="340" y="310" as="sourcePoint" />
            <mxPoint x="500" y="310" as="targetPoint" />
            <Array as="points">
              <mxPoint x="95" y="140" />
              <mxPoint x="240" y="140" />
              <mxPoint x="240" y="360" />
              <mxPoint x="410" y="360" />
            </Array>
            <mxPoint as="offset" />
          </mxGeometry>
        </mxCell>
        <mxCell id="34" value="Extends" style="endArrow=block;endSize=16;endFill=0;html=1;labelBackgroundColor=none;strokeColor=#0000CC;strokeWidth=2;fontSize=17;fontColor=#000000;entryX=0.75;entryY=0;entryDx=0;entryDy=0;exitX=0.5;exitY=0;exitDx=0;exitDy=0;" parent="1" source="21" target="12" edge="1">
          <mxGeometry x="0.1563" y="18" width="160" relative="1" as="geometry">
            <mxPoint x="340" y="310" as="sourcePoint" />
            <mxPoint x="500" y="310" as="targetPoint" />
            <Array as="points">
              <mxPoint x="695" y="160" />
              <mxPoint x="840" y="160" />
              <mxPoint x="840" y="350" />
              <mxPoint x="550" y="350" />
              <mxPoint x="460" y="350" />
            </Array>
            <mxPoint x="-1" as="offset" />
          </mxGeometry>
        </mxCell>
        <mxCell id="35" value="" style="endArrow=open;endFill=1;endSize=12;html=1;labelBackgroundColor=none;strokeColor=#0000CC;strokeWidth=2;fontSize=17;fontColor=#000000;exitX=1;exitY=0.5;exitDx=0;exitDy=0;entryX=1;entryY=0.25;entryDx=0;entryDy=0;" parent="1" source="15" target="2" edge="1">
          <mxGeometry width="160" relative="1" as="geometry">
            <mxPoint x="340" y="310" as="sourcePoint" />
            <mxPoint x="550" y="100" as="targetPoint" />
            <Array as="points">
              <mxPoint x="540" y="439" />
              <mxPoint x="540" y="105" />
            </Array>
          </mxGeometry>
        </mxCell>
      </root>
    </mxGraphModel>
  </diagram>
</mxfile>
